<svg width="46" height="70" viewBox="0 0 46 70" fill="none" xmlns="http://www.w3.org/2000/svg">
<path d="M32.9305 45.6528H28.8142V56.3051H32.9305V45.6528Z" fill="white"/>
<path d="M16.4652 45.6528H12.3489V56.3051H16.4652V45.6528Z" fill="white"/>
<path d="M16.4652 13.6958H12.3489V24.3481H16.4652V13.6958Z" fill="white"/>
<path d="M32.9305 13.6958H28.8142V24.3481H32.9305V13.6958Z" fill="white"/>
<path d="M43.2216 0H2.05821C0.921978 0 0 1.02171 0 2.28268V67.7183C0 68.9793 0.921978 70.001 2.05821 70.001H43.2216C44.3578 70.001 45.2798 68.9793 45.2798 67.7183V2.28268C45.2796 1.02171 44.3578 0 43.2216 0ZM20.5816 58.5877C20.5816 59.8487 19.6596 60.8704 18.5234 60.8704H10.2907C9.15445 60.8704 8.23247 59.8487 8.23247 58.5877V43.37C8.23247 42.1091 9.15445 41.0873 10.2907 41.0873H18.5234C19.6596 41.0873 20.5816 42.1091 20.5816 43.37V58.5877ZM18.5235 37.2831H10.2908C9.15457 37.2831 8.2326 36.2614 8.2326 35.0004C8.2326 33.7394 9.15457 32.7177 10.2908 32.7177H18.5235C19.6598 32.7177 20.5817 33.7394 20.5817 35.0004C20.5816 36.2614 19.6598 37.2831 18.5235 37.2831ZM20.5816 26.6308C20.5816 27.8918 19.6596 28.9135 18.5234 28.9135H10.2907C9.15445 28.9135 8.23247 27.8918 8.23247 26.6308V11.4131C8.23247 10.1522 9.15445 9.13046 10.2907 9.13046H18.5234C19.6596 9.13046 20.5816 10.1522 20.5816 11.4131V26.6308ZM37.047 58.5877C37.047 59.8487 36.1251 60.8704 34.9888 60.8704H26.7561C25.6199 60.8704 24.6979 59.8487 24.6979 58.5877V43.37C24.6979 42.1091 25.6199 41.0873 26.7561 41.0873H34.9888C36.1251 41.0873 37.047 42.1091 37.047 43.37V58.5877ZM37.047 26.6308C37.047 27.8918 36.1251 28.9135 34.9888 28.9135H26.7561C25.6199 28.9135 24.6979 27.8918 24.6979 26.6308V11.4131C24.6979 10.1522 25.6199 9.13046 26.7561 9.13046H34.9888C36.1251 9.13046 37.047 10.1522 37.047 11.4131V26.6308Z" fill="white"/>
</svg>
