<svg width="377" height="382" viewBox="0 0 377 382" fill="none" xmlns="http://www.w3.org/2000/svg">
<path d="M340.784 13.9668L315.078 57.0373C292.976 49.7793 260.071 51.1999 239.371 57.0373L214.607 14.5756C173.938 91.5486 185.449 140.194 216.48 164.379C211.733 167.388 206.843 170.694 201.789 174.323C72.4429 69.7627 -44.003 187.526 32.3867 292.743H32.9757C46.6773 312.882 62.4642 325.345 79.5117 331.862C103.663 341.09 128.51 338.44 152.98 334.93C177.449 331.421 201.389 327.016 224.209 328.663C247.029 330.311 269.85 336.244 290.738 359.331C304.981 375.064 325.21 358.125 308.245 341.341C282.503 315.866 254.934 306.018 227.838 304.072C200.741 302.126 174.763 307.57 151.236 310.948C127.709 314.326 106.927 315.83 89.078 309.002C80.7016 305.803 72.549 300.765 64.6909 292.767H329.887C342.422 247.93 343.753 200.49 329.498 170.563C372.323 147.917 389.547 94.4494 340.784 13.9907V13.9668ZM261.261 129.784C233.976 143.119 221.594 132.315 216.292 110.016C243.071 93.184 259.011 106.697 261.261 129.784ZM295.321 129.784C297.571 106.697 313.511 93.1721 340.29 110.016C334.988 132.315 322.594 143.131 295.321 129.784Z" fill="white"/>
</svg>
