<svg width="64" height="60" viewBox="0 0 64 60" fill="none" xmlns="http://www.w3.org/2000/svg">
<path d="M62.5058 1.2802C58.4185 4.78853 45.1027 16.4429 45.3555 19.0318L45.3739 19.1949L45.9691 19.9859L45.0375 19.9879L44.8846 19.996C44.0651 20.1326 42.5913 22.5401 42.1163 24.5135C41.5618 26.8068 42.1102 28.6476 43.7145 29.8483C43.8062 29.9197 43.9061 29.9767 43.9999 30.0379L43.2354 31.0735L41.994 30.2234L41.4843 30.9573L42.7095 31.7931L36.9812 39.562L39.666 38.0494L43.69 32.4678L44.5829 33.0774L45.0844 32.3435L44.2078 31.7442L45.0518 30.57C46.016 30.9226 47.0903 31.0164 48.2421 30.8248C50.7984 30.3946 53.2406 28.6639 53.6381 27.7119C53.7584 27.4245 53.7176 27.1982 53.6504 27.0494L53.471 26.3787L54.1478 26.5805L54.4474 26.5948C55.0019 26.501 55.7664 26.3726 59.7599 13.9518C61.6761 7.97477 63.4354 1.94885 63.4496 1.88769L63.998 0L62.5058 1.2802ZM54.2252 25.3798L51.779 24.6582L52.5108 27.3368C52.1663 27.8689 50.2297 29.302 48.0484 29.6689C47.2208 29.8075 46.4665 29.7607 45.7775 29.567L45.804 29.5323L54.6839 15.7273L54.4739 15.6132L44.8561 28.8759L44.6991 29.0879C44.6053 29.0268 44.4993 28.9819 44.4096 28.9187C43.4801 28.2236 43.0296 27.2369 43.0744 25.9853C43.1519 23.8469 44.6359 21.5943 45.1252 21.1702L48.3094 21.156L46.5399 18.7974C46.8375 17.4479 51.8259 12.4188 57.7784 7.01666L58.18 9.40991L60.1492 8.83504C57.6398 16.9709 55.1528 24.2219 54.2252 25.3798ZM60.4244 7.93604L58.8038 8.41102L58.4654 6.39898C59.5479 5.42252 60.6527 4.44402 61.7658 3.4696C61.3234 4.96181 60.877 6.46014 60.4244 7.93604Z" fill="white"/>
<path d="M48.9535 53.2651C46.8171 52.4069 44.3668 51.9727 41.6555 51.9727C34.9956 51.9727 28.6598 54.5229 26.7518 55.3648V43.1784L27.6406 44.1549V25.8508C31.2284 22.8338 35.6255 21.2865 40.7382 21.2865C41.1846 21.2865 41.6148 21.3008 42.0368 21.3232L43.0499 19.882C42.316 19.8188 41.5495 19.78 40.7382 19.78C35.1811 19.78 30.3987 21.4741 26.5031 24.8132C22.6074 21.4741 17.823 19.78 12.2679 19.78C7.07985 19.78 3.19236 21.2906 3.02927 21.3538L2.54818 21.5413V24.6053C0.976461 24.8988 0 25.4268 0 26.285C0 30.7535 0 57.8722 0 57.8722H23.2618C24.0691 58.5939 25.2453 59.0484 26.5602 59.0484C27.875 59.0484 29.0533 58.5918 29.8565 57.8722H52.5352C52.5352 57.8722 52.5352 30.4559 52.5352 30.782C51.2571 31.7218 48.9474 32.2151 48.9474 32.2151V53.2651H48.9535ZM26.2503 55.3811C24.3198 54.582 17.668 52.0542 11.004 52.0542C8.37433 52.0542 6.0402 52.4558 4.05262 53.257V22.5871C5.21255 22.1977 8.37433 21.2845 12.2639 21.2845C17.3786 21.2845 21.7757 22.8317 25.3635 25.8488V44.1528L26.2503 43.1764V55.3811Z" fill="white"/>
<path d="M6.42749 27.2776L6.74346 28.4743C14.706 26.3623 21.8715 30.2702 21.9428 30.311L22.5442 29.2306C22.2384 29.0593 14.8834 25.0393 6.42749 27.2776Z" fill="white"/>
<path d="M38.9443 27.5061C37.5316 27.3369 34.2251 26.9374 30.0542 28.2441L30.4232 29.4264C34.3433 28.1952 37.3481 28.5621 38.7934 28.7354C39.1033 28.7741 39.3398 28.7986 39.4947 28.8027L39.5273 27.5653C39.3948 27.5612 39.1991 27.5367 38.9443 27.5061Z" fill="white"/>
<path d="M39.4927 31.9683L39.5253 30.733C39.3969 30.7309 39.2032 30.7024 38.9484 30.6738C37.5336 30.5006 34.2271 30.1031 30.0563 31.4138L30.4252 32.5962C34.3433 31.3629 37.3522 31.7298 38.7975 31.9051C39.1074 31.9377 39.3377 31.9642 39.4927 31.9683Z" fill="white"/>
<path d="M30.0522 34.4717L30.4212 35.6541C34.3331 34.4228 36.6938 34.7204 37.8292 34.857C38.0963 34.8937 38.3022 34.9141 38.4612 34.9182L38.4938 33.6828C38.3654 33.6788 38.1962 33.6543 37.9862 33.6319C36.759 33.481 34.2149 33.1671 30.0522 34.4717Z" fill="white"/>
<path d="M6.42749 30.782L6.74346 31.9765C14.706 29.8646 21.8715 33.7725 21.9428 33.8133L22.5442 32.7328C22.2384 32.5616 14.8834 28.5396 6.42749 30.782Z" fill="white"/>
<path d="M6.42749 34.0743L6.74346 35.2688C14.706 33.159 21.8715 37.0648 21.9428 37.1056L22.5442 36.0251C22.2384 35.8519 14.8834 31.8359 6.42749 34.0743Z" fill="white"/>
<path d="M6.42749 37.6824L6.74346 38.879C14.706 36.767 21.8715 40.6749 21.9428 40.7116L22.5442 39.6332C22.2384 39.462 14.8834 35.44 6.42749 37.6824Z" fill="white"/>
<path d="M6.42749 41.0235L6.74346 42.2201C14.706 40.1102 21.8715 44.0161 21.9428 44.0568L22.5442 42.9764C22.2384 42.8052 14.8834 38.7852 6.42749 41.0235Z" fill="white"/>
<path d="M6.42749 44.4586L6.74346 45.6532C14.706 43.5433 21.8715 47.4492 21.9428 47.4899L22.5442 46.4095C22.2384 46.2383 14.8834 42.2183 6.42749 44.4586Z" fill="white"/>
<path d="M6.42749 47.9017L6.74346 49.0942C14.706 46.9823 21.8715 50.8922 21.9428 50.9309L22.5442 49.8525C22.2384 49.6793 14.8834 45.6572 6.42749 47.9017Z" fill="white"/>
<path d="M21.0683 18.1573H34.1211C34.6939 18.1573 35.1832 17.9677 35.5297 17.6049C36.1352 16.975 36.1189 16.0637 36.1189 15.9781V7.65474H32.5147V6.5784H33.5585V5.15142H31.3467L31.9195 1.427H23.7816L24.3545 5.15142H22.1447V6.5784H23.2944V7.65474H19.1358V16.0189C19.1338 16.1188 19.1134 17.0076 19.7066 17.6212C20.047 17.9698 20.5159 18.1573 21.0683 18.1573ZM20.1693 8.68829H24.328V6.5784H31.4893V8.68625H35.0915V11.2507H20.1693V8.68829ZM33.589 13.8641V14.3534H21.6717V13.8641H33.589ZM23.7633 13.273V12.7837H31.7075V13.273H23.7633ZM20.1693 15.4236H35.0894V15.9924C35.0894 16.1514 35.0466 16.6243 34.7877 16.8893C34.6328 17.0463 34.4167 17.1217 34.1272 17.1217H21.0724C20.8013 17.1217 20.6035 17.0504 20.4588 16.9056C20.2081 16.6549 20.1653 16.2064 20.1693 16.0393V15.4236Z" fill="white"/>
</svg>
