<svg width="208" height="208" viewBox="0 0 208 208" fill="none" xmlns="http://www.w3.org/2000/svg">
<g filter="url(#filter0_d_40_14)">
<rect x="4" width="200" height="200" rx="30" fill="#06299A"/>
</g>
<path d="M48.4636 156.805L36 29H173L160.52 156.785L104.417 171L48.4636 156.805Z" fill="#1572B6"/>
<path d="M105 161L150.335 149.388L161 39H105V161Z" fill="#33A9DC"/>
<path d="M105 85.1188H127.693L129.258 69.8812H105V55H105.061H148L147.589 58.9911L143.378 100H105V85.1188Z" fill="white"/>
<path d="M105 125.927L104.922 125.947L85.6272 121.304L84.394 109H75.0159H67L69.4272 133.225L104.916 142L105 141.98V125.927Z" fill="#EBEBEB"/>
<path d="M125.971 100L123.929 120.982L105 125.697V142L139.793 133.098L140.051 130.452L143 100H125.971Z" fill="white"/>
<path d="M105 55V63.6962V68.9638V69H62.6309H62.5741L62.2217 65.8522L61.4205 58.7548L61 55H105Z" fill="#EBEBEB"/>
<path d="M105 86V94.6962V99.9638V100H85.6343H85.5771L85.2229 96.8522L84.4229 89.7548L84 86H105Z" fill="#EBEBEB"/>
<defs>
<filter id="filter0_d_40_14" x="0" y="0" width="208" height="208" filterUnits="userSpaceOnUse" color-interpolation-filters="sRGB">
<feFlood flood-opacity="0" result="BackgroundImageFix"/>
<feColorMatrix in="SourceAlpha" type="matrix" values="0 0 0 0 0 0 0 0 0 0 0 0 0 0 0 0 0 0 127 0" result="hardAlpha"/>
<feOffset dy="4"/>
<feGaussianBlur stdDeviation="2"/>
<feComposite in2="hardAlpha" operator="out"/>
<feColorMatrix type="matrix" values="0 0 0 0 0 0 0 0 0 0 0 0 0 0 0 0 0 0 0.25 0"/>
<feBlend mode="normal" in2="BackgroundImageFix" result="effect1_dropShadow_40_14"/>
<feBlend mode="normal" in="SourceGraphic" in2="effect1_dropShadow_40_14" result="shape"/>
</filter>
</defs>
</svg>
