<svg width="51" height="54" viewBox="0 0 51 54" fill="none" xmlns="http://www.w3.org/2000/svg">
<path d="M49.1032 25.4605C44.042 24.9672 40.2548 22.0519 39 17.9436C38.2779 15.5858 35.4211 13.8815 32.132 12.8486C28.5965 3.82695 26.2031 -1.08457 15.1123 0.202968C19.0956 3.40134 22.2874 7.69135 23.9207 11.627C20.7219 10.6849 17.7192 10.1881 14.9266 10.0652C8.83791 8.69574 2.00814 11.5201 0 18.1804V54H23.039C7.94579 48.394 3.97984 20.1055 19.8107 25.5103C19.533 26.3544 19.2518 27.1629 18.9828 27.9091C22.5391 37.3813 31.3041 45.7654 37.339 46.5989C38.0575 46.6256 39.1718 46.2961 40.4631 45.6693C40.2219 45.5909 39.9893 45.4876 39.7671 45.3559C38.4185 44.558 37.7434 42.9197 37.7885 41.0213C36.5145 41.7087 35.1659 41.8174 34.0933 41.1816C32.5052 40.2413 31.9932 37.9547 32.6649 35.5898C31.4378 35.8979 30.2679 35.6913 29.5043 34.9077C28.5427 33.9229 28.4715 32.2828 29.1693 30.6907C28.7718 30.6231 28.416 30.4503 28.1383 30.1654C27.1854 29.1877 27.5135 27.2662 28.8725 25.8736C30.2315 24.481 32.106 24.1444 33.0606 25.1221C33.4789 25.5513 33.6507 26.1621 33.5969 26.8299C34.8084 26.5379 35.9574 26.748 36.7124 27.5226C37.3789 28.2047 37.6167 29.2038 37.4674 30.2812C38.3942 30.0301 39.3072 30.1013 40.0778 30.559C41.0897 31.1573 41.6642 32.3024 41.7753 33.6665C43.4224 32.541 45.257 32.2525 46.6767 33.0931C48.3516 34.085 48.9904 36.3734 48.4957 38.8434C51.094 35.1375 52.2395 30.429 49.1032 25.4605Z" fill="white"/>
</svg>
