<svg width="208" height="208" viewBox="0 0 208 208" fill="none" xmlns="http://www.w3.org/2000/svg">
<g filter="url(#filter0_d_40_20)">
<rect x="4" width="200" height="200" rx="30" fill="#2A2C2A"/>
</g>
<path d="M34.9242 115.069V99.2655H54.6554V98.3414H34.9242V83.9242H55.903V83H34V115.993H56.0879V115.069H34.9242ZM73.8783 92.2418L65.6993 103.008L57.7052 92.2418H56.5037L65.1448 103.702L55.672 115.993H56.781L65.6993 104.395L74.6638 115.993H75.8191L66.3 103.702L74.9873 92.2418H73.8783ZM78.5916 124.126V109.339H78.684C79.2385 111.496 80.3321 113.228 81.9649 114.538C83.5976 115.847 85.677 116.501 88.2031 116.501C89.8358 116.501 91.2836 116.17 92.5467 115.508C93.8097 114.846 94.8648 113.945 95.712 112.805C96.5592 111.665 97.2061 110.34 97.6528 108.831C98.0995 107.321 98.3228 105.735 98.3228 104.071C98.3228 102.285 98.0918 100.636 97.6297 99.1269C97.1676 97.6174 96.4976 96.3082 95.6196 95.1992C94.7416 94.0901 93.6788 93.2276 92.4312 92.6115C91.1835 91.9953 89.7742 91.6873 88.2031 91.6873C87.0016 91.6873 85.8849 91.8644 84.8529 92.2187C83.8209 92.573 82.9044 93.0735 82.1035 93.7205C81.3025 94.3674 80.6094 95.1298 80.0241 96.0078C79.4388 96.8858 78.9921 97.8485 78.684 98.8959H78.5916V92.2418H77.6674V124.126H78.5916ZM88.2031 115.623C85.3073 115.623 82.9815 114.63 81.2255 112.643C79.4696 110.656 78.5916 107.799 78.5916 104.071C78.5916 102.531 78.8072 101.068 79.2385 99.6814C79.6698 98.2951 80.2936 97.0783 81.11 96.0309C81.9264 94.9835 82.9352 94.1518 84.1367 93.5356C85.3381 92.9195 86.6936 92.6115 88.2031 92.6115C89.7434 92.6115 91.0911 92.9195 92.2463 93.5356C93.4016 94.1518 94.3565 94.9912 95.1113 96.054C95.866 97.1168 96.4359 98.3337 96.821 99.7045C97.2061 101.075 97.3986 102.531 97.3986 104.071C97.3986 105.458 97.2215 106.836 96.8672 108.207C96.513 109.578 95.9662 110.81 95.2268 111.904C94.4875 112.997 93.5402 113.891 92.385 114.584C91.2297 115.277 89.8358 115.623 88.2031 115.623ZM103.406 115.993V102.546C103.406 101.253 103.591 99.9895 103.96 98.7572C104.33 97.525 104.9 96.4391 105.67 95.4995C106.44 94.5599 107.418 93.8206 108.604 93.2815C109.79 92.7424 111.2 92.519 112.832 92.6115V91.6873C111.415 91.6565 110.175 91.8105 109.113 92.1494C108.05 92.4882 107.133 92.9503 106.363 93.5356C105.593 94.1209 104.977 94.8064 104.515 95.5919C104.053 96.3775 103.714 97.2169 103.498 98.1103H103.406V92.2418H102.482V115.993H103.406ZM113.988 104.302H133.857C133.919 102.67 133.757 101.099 133.372 99.589C132.987 98.0795 132.371 96.7395 131.524 95.5688C130.677 94.3982 129.583 93.4586 128.243 92.7501C126.903 92.0415 125.309 91.6873 123.46 91.6873C122.136 91.6873 120.842 91.9645 119.579 92.519C118.316 93.0735 117.207 93.8822 116.252 94.945C115.297 96.0078 114.527 97.3094 113.941 98.8497C113.356 100.39 113.063 102.146 113.063 104.117C113.063 105.873 113.264 107.514 113.664 109.039C114.065 110.564 114.681 111.888 115.513 113.013C116.344 114.137 117.415 115.007 118.724 115.623C120.033 116.24 121.612 116.532 123.46 116.501C126.171 116.501 128.451 115.739 130.299 114.214C132.148 112.689 133.241 110.541 133.58 107.768H132.656C132.256 110.386 131.231 112.35 129.583 113.66C127.935 114.969 125.863 115.623 123.368 115.623C121.674 115.623 120.241 115.331 119.071 114.746C117.9 114.16 116.945 113.359 116.206 112.343C115.466 111.326 114.92 110.132 114.565 108.761C114.211 107.391 114.018 105.904 113.988 104.302ZM132.933 103.378H113.988C114.08 101.715 114.388 100.221 114.912 98.8959C115.436 97.5712 116.121 96.4391 116.968 95.4995C117.815 94.5599 118.801 93.8437 119.925 93.3508C121.05 92.8579 122.259 92.6115 123.553 92.6115C125.093 92.6115 126.449 92.8964 127.619 93.4663C128.79 94.0362 129.768 94.8141 130.554 95.7999C131.339 96.7857 131.932 97.9332 132.333 99.2424C132.733 100.552 132.933 101.93 132.933 103.378ZM153.034 99.2655H153.958C153.958 96.6162 153.188 94.6909 151.648 93.4894C150.108 92.288 148.013 91.6873 145.363 91.6873C143.885 91.6873 142.637 91.8721 141.621 92.2418C140.604 92.6115 139.772 93.0889 139.125 93.6743C138.478 94.2596 138.016 94.9065 137.739 95.615C137.462 96.3236 137.323 97.0013 137.323 97.6482C137.323 98.9421 137.554 99.9741 138.016 100.744C138.478 101.514 139.202 102.115 140.188 102.546C140.866 102.854 141.636 103.132 142.499 103.378C143.361 103.625 144.362 103.886 145.502 104.164C146.519 104.41 147.52 104.657 148.506 104.903C149.491 105.149 150.362 105.481 151.117 105.897C151.871 106.312 152.487 106.844 152.965 107.491C153.442 108.138 153.681 108.985 153.681 110.032C153.681 111.049 153.442 111.911 152.965 112.62C152.487 113.328 151.879 113.906 151.14 114.353C150.4 114.799 149.576 115.123 148.667 115.323C147.759 115.523 146.873 115.623 146.01 115.623C143.207 115.623 141.058 115 139.564 113.752C138.07 112.504 137.323 110.541 137.323 107.86H136.399C136.399 110.849 137.208 113.036 138.825 114.422C140.442 115.808 142.837 116.501 146.01 116.501C147.027 116.501 148.051 116.386 149.083 116.155C150.115 115.924 151.039 115.546 151.856 115.023C152.672 114.499 153.335 113.821 153.843 112.99C154.351 112.158 154.605 111.141 154.605 109.94C154.605 108.8 154.382 107.876 153.935 107.167C153.489 106.459 152.903 105.873 152.179 105.411C151.455 104.949 150.639 104.587 149.73 104.325C148.821 104.064 147.905 103.809 146.981 103.563C145.687 103.224 144.555 102.931 143.584 102.685C142.614 102.439 141.713 102.146 140.881 101.807C140.08 101.468 139.441 100.983 138.964 100.351C138.486 99.7199 138.247 98.8189 138.247 97.6482C138.247 97.4326 138.309 97.0475 138.432 96.493C138.555 95.9385 138.848 95.3763 139.31 94.8064C139.772 94.2365 140.481 93.7282 141.436 93.2815C142.391 92.8348 143.7 92.6115 145.363 92.6115C146.503 92.6115 147.543 92.7347 148.483 92.9811C149.422 93.2276 150.231 93.6203 150.909 94.1595C151.586 94.6986 152.11 95.384 152.48 96.2158C152.849 97.0475 153.034 98.0641 153.034 99.2655ZM174.429 99.2655H175.353C175.353 96.6162 174.583 94.6909 173.043 93.4894C171.502 92.288 169.408 91.6873 166.758 91.6873C165.28 91.6873 164.032 91.8721 163.015 92.2418C161.999 92.6115 161.167 93.0889 160.52 93.6743C159.873 94.2596 159.411 94.9065 159.134 95.615C158.856 96.3236 158.718 97.0013 158.718 97.6482C158.718 98.9421 158.949 99.9741 159.411 100.744C159.873 101.514 160.597 102.115 161.583 102.546C162.261 102.854 163.031 103.132 163.893 103.378C164.756 103.625 165.757 103.886 166.897 104.164C167.913 104.41 168.915 104.657 169.9 104.903C170.886 105.149 171.756 105.481 172.511 105.897C173.266 106.312 173.882 106.844 174.36 107.491C174.837 108.138 175.076 108.985 175.076 110.032C175.076 111.049 174.837 111.911 174.36 112.62C173.882 113.328 173.274 113.906 172.534 114.353C171.795 114.799 170.971 115.123 170.062 115.323C169.153 115.523 168.268 115.623 167.405 115.623C164.602 115.623 162.453 115 160.959 113.752C159.465 112.504 158.718 110.541 158.718 107.86H157.794C157.794 110.849 158.602 113.036 160.22 114.422C161.837 115.808 164.232 116.501 167.405 116.501C168.422 116.501 169.446 116.386 170.478 116.155C171.51 115.924 172.434 115.546 173.251 115.023C174.067 114.499 174.729 113.821 175.238 112.99C175.746 112.158 176 111.141 176 109.94C176 108.8 175.777 107.876 175.33 107.167C174.883 106.459 174.298 105.873 173.574 105.411C172.85 104.949 172.034 104.587 171.125 104.325C170.216 104.064 169.3 103.809 168.376 103.563C167.082 103.224 165.95 102.931 164.979 102.685C164.009 102.439 163.108 102.146 162.276 101.807C161.475 101.468 160.836 100.983 160.358 100.351C159.881 99.7199 159.642 98.8189 159.642 97.6482C159.642 97.4326 159.704 97.0475 159.827 96.493C159.95 95.9385 160.243 95.3763 160.705 94.8064C161.167 94.2365 161.875 93.7282 162.83 93.2815C163.785 92.8348 165.095 92.6115 166.758 92.6115C167.898 92.6115 168.938 92.7347 169.877 92.9811C170.817 93.2276 171.626 93.6203 172.303 94.1595C172.981 94.6986 173.505 95.384 173.874 96.2158C174.244 97.0475 174.429 98.0641 174.429 99.2655Z" fill="white"/>
<defs>
<filter id="filter0_d_40_20" x="0" y="0" width="208" height="208" filterUnits="userSpaceOnUse" color-interpolation-filters="sRGB">
<feFlood flood-opacity="0" result="BackgroundImageFix"/>
<feColorMatrix in="SourceAlpha" type="matrix" values="0 0 0 0 0 0 0 0 0 0 0 0 0 0 0 0 0 0 127 0" result="hardAlpha"/>
<feOffset dy="4"/>
<feGaussianBlur stdDeviation="2"/>
<feComposite in2="hardAlpha" operator="out"/>
<feColorMatrix type="matrix" values="0 0 0 0 0 0 0 0 0 0 0 0 0 0 0 0 0 0 0.25 0"/>
<feBlend mode="normal" in2="BackgroundImageFix" result="effect1_dropShadow_40_20"/>
<feBlend mode="normal" in="SourceGraphic" in2="effect1_dropShadow_40_20" result="shape"/>
</filter>
</defs>
</svg>
