<svg width="109" height="107" viewBox="0 0 109 107" fill="none" xmlns="http://www.w3.org/2000/svg">
<g clip-path="url(#clip0_26_249)">
<path d="M27.7303 0C27.3719 0.00183471 27.0165 0.0119256 26.6599 0.0286673L65.6094 59.2193H98.7762C102.257 55.342 105.098 51.1321 106.87 46.2479H84.9004C83.241 50.4149 79.2 53.3786 74.5036 53.3786C68.3413 53.3786 63.3062 48.2798 63.3062 42.0478C63.3062 39.425 64.202 37.0073 65.6942 35.0816L54.5469 17.2724C54.5401 17.2845 54.5325 17.296 54.5255 17.3082C54.2572 16.838 53.9824 16.3826 53.7036 15.9321C46.8762 4.90417 37.0851 -0.0513716 27.7304 0.000458861L27.7303 0ZM79.5851 0.609122C71.4517 0.684345 63.1098 4.75005 56.7301 13.8316H103.022C97.4704 5.4055 88.6589 0.524497 79.5848 0.609351L79.5851 0.609122ZM21.9901 0.666457C19.3833 1.26824 16.8695 2.27343 14.5344 3.64785C16.9547 5.73024 18.4963 8.83089 18.4963 12.2765C18.4963 15.1937 17.3912 17.8609 15.5837 19.8732L25.3776 35.31H44.7887L21.9901 0.666457ZM7.29158 5.23143C3.41952 5.23143 0.324869 8.36075 0.324869 12.2767C0.324869 16.1922 3.41952 19.3142 7.29158 19.3142C11.1636 19.3142 14.2583 16.1924 14.2583 12.2767C14.2583 8.36099 11.1636 5.23143 7.29158 5.23143ZM60.0962 18.1175L68.9339 32.2287C70.5757 31.2691 72.4795 30.7166 74.5036 30.7166C80.6379 30.7166 85.6618 35.769 85.7081 41.961H108.103C108.687 39.2533 108.955 36.3446 108.861 33.1889C108.695 27.5576 107.447 22.4881 105.41 18.1172H60.0966L60.0962 18.1175ZM1.25331 21.8011C0.34165 25.2458 -0.103974 29.0528 0.020529 33.1891C0.0420731 33.9099 0.0869759 34.6144 0.14798 35.3104H20.3458L12.1885 22.4539C10.7069 23.187 9.04527 23.6005 7.29158 23.6005C5.07139 23.6005 2.99952 22.9384 1.25354 21.8013L1.25331 21.8011ZM74.5036 35.0025C70.6317 35.0025 67.5443 38.1316 67.5443 42.0473C67.5443 45.963 70.6317 49.0926 74.5037 49.0926C78.3758 49.0926 81.4705 45.963 81.4705 42.0473C81.4705 38.1316 78.3758 35.0021 74.5037 35.0021L74.5036 35.0025ZM0.792945 39.5962C1.63044 43.4808 3.10316 46.9815 5.04509 50.2248H40.6425L41.2662 51.2209L58.8774 79.3434L60.9393 82.6334H44.1933C43.8752 84.2295 43.2241 85.7105 42.3152 86.9907C47.3416 92.6237 51.6892 99.0477 54.5257 106.886C62.4985 86.0289 81.3159 75.9544 94.5672 63.5052H63.3348L62.7043 62.5442L47.6021 39.5966H0.792945V39.5962ZM7.97192 54.5107C12.7781 60.7556 19.2647 66.1529 25.9585 71.7829C27.9163 70.0963 30.4506 69.0737 33.2083 69.0737C38.6774 69.0737 43.2656 73.088 44.2287 78.3476H53.2366L38.3107 54.5107H7.97192ZM33.2081 73.3596C29.3362 73.3596 26.2419 76.4887 26.2419 80.4044C26.2419 84.3201 29.3362 87.4497 33.2086 87.4497C37.0805 87.4497 40.1677 84.3201 40.1677 80.4044C40.1677 76.4887 37.0802 73.3591 33.2078 73.3591L33.2081 73.3596Z" fill="white"/>
</g>
<defs>
<clipPath id="clip0_26_249">
<rect width="109" height="107" fill="white"/>
</clipPath>
</defs>
</svg>
