<svg width="55" height="64" viewBox="0 0 55 64" fill="none" xmlns="http://www.w3.org/2000/svg">
<path d="M24.7177 23.8033C24.3145 23.4002 23.6609 23.4002 23.2579 23.8033C22.8548 24.2065 22.8548 24.8601 23.2579 25.2631L24.9434 26.9485C25.1449 27.15 25.4091 27.2509 25.6733 27.2509C25.9374 27.2509 26.2016 27.1502 26.4031 26.9485C26.8063 26.5454 26.8063 25.8918 26.4031 25.4888L24.7177 23.8033Z" fill="white"/>
<path d="M29.9728 29.0586C29.5697 28.6554 28.916 28.6554 28.513 29.0586C28.1099 29.4617 28.1099 30.1152 28.513 30.5183L30.1985 32.2038C30.4 32.4054 30.6643 32.5062 30.9284 32.5062C31.1925 32.5062 31.4568 32.4054 31.6583 32.2038C32.0614 31.8007 32.0614 31.1472 31.6583 30.744L29.9728 29.0586Z" fill="white"/>
<path d="M53.8839 1.37634H33.0259V1.03226C33.0259 0.462176 32.5637 0 31.9936 0H22.9228C22.3527 0 21.8906 0.462176 21.8906 1.03226V7.10992L17.0433 16.9947C16.8044 17.482 16.9836 18.0713 17.4535 18.3428C18.2829 18.8222 19.1449 19.2374 20.0301 19.5913C19.8565 19.7449 19.6872 19.904 19.5228 20.0683C17.4033 22.1879 16.2358 25.006 16.2358 28.0036C16.2358 31.0012 17.4031 33.8194 19.5228 35.939C21.7107 38.1268 24.5843 39.2206 27.4581 39.2206C30.3318 39.2206 33.2056 38.1268 35.3935 35.939C37.513 33.8194 38.6804 31.0012 38.6804 28.0036C38.6804 25.0061 37.5132 22.1879 35.3935 20.0683C35.2288 19.9037 35.0584 19.7468 34.8856 19.5938C35.7715 19.2388 36.634 18.8219 37.4628 18.3428C37.9327 18.0711 38.112 17.482 37.8729 16.9947L33.0257 7.10992V7.00532H53.8839C54.454 7.00532 54.9162 6.54314 54.9162 5.97306V2.4086C54.9162 1.83852 54.454 1.37634 53.8839 1.37634ZM36.6159 28.0036C36.6159 30.4497 35.6634 32.7494 33.9337 34.4791C32.1482 36.2646 29.8036 37.1572 27.4583 37.157C25.1134 37.1569 22.7678 36.2642 20.9829 34.4791C19.2532 32.7494 18.3006 30.4497 18.3006 28.0036C18.3006 25.5576 19.2532 23.2579 20.9829 21.5282C21.4168 21.0944 21.893 20.7083 22.3994 20.3717C24.0447 20.8015 25.7451 21.0238 27.4583 21.0238C28.0284 21.0238 28.4905 20.5616 28.4905 19.9915V18.9053C29.797 19.0509 31.0424 19.4703 32.1574 20.1392C32.1585 20.1399 32.1595 20.1406 32.1606 20.1411C32.7986 20.5243 33.3939 20.9883 33.9338 21.5282C35.6632 23.2577 36.6159 25.5575 36.6159 28.0036ZM35.5835 17.0148C34.6944 17.467 33.7695 17.8444 32.8209 18.1419C31.1942 17.2544 29.3629 16.7814 27.4583 16.7814C26.8882 16.7814 26.426 17.2435 26.426 17.8136V18.9294C23.9552 18.7867 21.5364 18.1339 19.333 17.0144L23.5722 8.36955H27.8646C28.4347 8.36955 28.8968 7.90737 28.8968 7.33729C28.8968 6.76721 28.4347 6.30503 27.8646 6.30503H23.9551V2.06452H30.9613V2.4086V5.97306V7.3494C30.9613 7.50699 30.9974 7.66238 31.0668 7.80387L35.5835 17.0148ZM52.8517 4.9408H33.0259V3.44086H52.8517V4.9408Z" fill="white"/>
<path d="M28.7744 42.8601C28.7224 42.8367 28.6681 42.8172 28.6114 42.8025C26.3604 41.9963 23.9368 41.5559 21.4121 41.5559C16.7527 41.5559 12.323 43.0267 8.60174 45.8092C8.36129 45.989 8.21113 46.2644 8.19021 46.5637C8.16915 46.8631 8.27954 47.1568 8.49259 47.3683C9.21118 48.082 9.60688 49.0322 9.60688 50.0441C9.60688 52.1235 7.91508 53.8153 5.83584 53.8153C5.06701 53.8153 4.32695 53.5847 3.69576 53.1486C3.44871 52.9779 3.13944 52.9233 2.84876 52.999C2.55807 53.0747 2.31474 53.2733 2.18233 53.5429C0.734142 56.4919 0 59.6628 0 62.9678C0 63.5379 0.462176 64.0001 1.03226 64.0001C1.60234 64.0001 2.06452 63.5379 2.06452 62.9678C2.06452 60.3433 2.57652 57.8129 3.58799 55.4306C4.29502 55.7263 5.05573 55.8797 5.8357 55.8797C9.05345 55.8797 11.6713 53.2617 11.6713 50.044C11.6713 48.8884 11.3379 47.7848 10.7165 46.8422C11.6882 46.1952 12.7078 45.6431 13.7648 45.1873C14.8567 48.4228 17.8978 50.6633 21.4121 50.6633C24.9233 50.6633 27.9621 48.4268 29.0564 45.1959C35.9337 48.1655 40.7597 55.0133 40.7597 62.9678C40.7597 63.5379 41.2219 64.0001 41.792 64.0001C42.3621 64.0001 42.8243 63.5379 42.8243 62.9678C42.8243 53.7467 36.9652 45.8685 28.7744 42.8601ZM21.4122 48.5988C18.7779 48.5988 16.5004 46.9085 15.7028 44.4739C17.5317 43.9107 19.4491 43.6202 21.4122 43.6202C23.398 43.6202 25.3148 43.9213 27.1196 44.4797C26.3202 46.9113 24.0445 48.5988 21.4122 48.5988Z" fill="white"/>
</svg>
