<svg width="180" height="180" viewBox="0 0 180 180" fill="none" xmlns="http://www.w3.org/2000/svg">
<g clip-path="url(#clip0_26_102)">
<path d="M90 180C139.706 180 180 139.706 180 90C180 40.2944 139.706 0 90 0C40.2944 0 0 40.2944 0 90C0 139.706 40.2944 180 90 180Z" fill="#0A66C2"/>
<path d="M121.834 121.852H108.475V100.934C108.475 95.9414 108.369 89.5254 101.514 89.5254C94.5527 89.5254 93.4805 94.957 93.4805 100.564V121.852H80.1211V78.8203H92.9531V84.6914H93.1289C94.9219 81.3164 99.2812 77.748 105.785 77.748C119.32 77.748 121.816 86.6602 121.816 98.2441L121.834 121.852ZM65.0566 72.9316C60.75 72.9316 57.3047 69.4512 57.3047 65.1797C57.3047 60.9082 60.7676 57.4277 65.0566 57.4277C69.3457 57.4277 72.8086 60.9082 72.8086 65.1797C72.8086 69.4512 69.3281 72.9316 65.0566 72.9316ZM71.7539 121.852H58.3594V78.8203H71.7539V121.852ZM128.514 45H51.6621C47.9883 45 45 47.9004 45 51.5039V128.672C45 132.258 47.9707 135.176 51.6621 135.176H128.496C132.17 135.176 135.176 132.275 135.176 128.672V51.5039C135.176 47.9004 132.17 45 128.514 45Z" fill="white"/>
</g>
<defs>
<clipPath id="clip0_26_102">
<rect width="180" height="180" fill="white"/>
</clipPath>
</defs>
</svg>
