<svg width="180" height="180" viewBox="0 0 180 180" fill="none" xmlns="http://www.w3.org/2000/svg">
<path d="M165 78.75V90C165 125.355 165 143.033 154.016 154.016C143.033 165 125.355 165 90 165C54.6446 165 36.967 165 25.9835 154.016C15 143.033 15 125.355 15 90C15 54.6446 15 36.967 25.9835 25.9835C36.967 15 54.6446 15 90 15H101.25" stroke="white" stroke-width="10" stroke-linecap="round"/>
<path d="M124.89 25.913L129.757 21.0468C137.819 12.9844 150.891 12.9844 158.954 21.0468C167.015 29.1093 167.015 42.1811 158.954 50.2436L154.087 55.1096M124.89 25.913C124.89 25.913 125.498 36.2534 134.623 45.3774C143.747 54.5014 154.087 55.1096 154.087 55.1096M124.89 25.913L80.154 70.6495C77.124 73.6796 75.609 75.1943 74.3057 76.8653C72.7687 78.8355 71.4509 80.9678 70.3758 83.2238C69.4643 85.1363 68.7868 87.1688 67.4317 91.2345L63.0932 104.25M154.087 55.1096L109.351 99.846C106.321 102.876 104.806 104.391 103.135 105.695C101.165 107.231 99.0323 108.549 96.7763 109.625C94.8638 110.536 92.8313 111.213 88.7655 112.568L75.75 116.907M63.0932 104.25L60.2858 112.672C59.619 114.673 60.1397 116.878 61.6308 118.37C63.122 119.861 65.3276 120.381 67.3282 119.714L75.75 116.907M63.0932 104.25L75.75 116.907" stroke="white" stroke-width="10"/>
</svg>
