<svg width="86" height="80" viewBox="0 0 86 80" fill="none" xmlns="http://www.w3.org/2000/svg">
<path d="M12.7653 0.000149332C8.41966 -0.0236048 4.99149 2.78998 2.85667 5.98948C0.653058 9.29221 -0.51175 12.9765 0.216753 15.952L0.218564 15.9593L14.9689 74.0995C14.9889 72.3574 15.3839 70.559 16.095 68.8743C16.8626 67.0566 18.0376 65.3273 19.5791 63.9024C20.9327 62.5429 22.7288 61.4643 24.8716 60.8737L24.8729 60.8734C25.663 60.6373 26.4954 60.467 27.3689 60.3727L27.488 60.3599L86 62.4155L63.0125 2.37976L13.1886 0.0116612C13.0463 0.00490045 12.9056 0.000880228 12.7653 0.000149332ZM12.746 3.41526C12.8401 3.41581 12.9348 3.41837 13.0296 3.42257L60.6514 5.68652L81.0017 58.8349L26.7876 57.0497L26.6694 57.0625C21.9388 57.5767 18.0379 59.9499 15.7067 63.2427L3.50099 15.1334C3.21676 13.9709 3.8848 10.5623 5.66297 7.89693C7.38574 5.31468 9.83249 3.40101 12.746 3.41526ZM15.9008 6.59521L12.648 7.53514L25.8748 54.165L29.1275 53.2255L15.9008 6.59521ZM27.6497 63.7829C23.3838 64.274 20.5515 67.0292 19.2078 70.2129C17.9653 73.1559 18.1835 76.2441 19.5344 78.0153L76.563 80C76.1078 77.5235 76.2335 74.9879 76.983 72.4712L73.0823 71.2254L79.2833 67.5609C79.7005 66.9173 80.1613 66.2782 80.6697 65.6459L27.6497 63.7829Z" fill="white"/>
</svg>
