<svg width="734" height="725" viewBox="0 0 734 725" fill="none" xmlns="http://www.w3.org/2000/svg">
<path d="M404.948 356.57C404.29 356.088 403.37 356.227 402.881 356.873C402.085 357.921 396.121 360.151 390.452 361.819C390.445 358.652 392.229 355.666 395.177 354.191L403.111 349.867C403.478 349.667 403.745 349.321 403.844 348.916C403.944 348.509 403.87 348.079 403.637 347.732L403.424 347.414C401.667 344.775 399.267 342.638 395.641 340.484L395.033 340.128C394.033 339.548 393.17 339.047 392.528 338.304C388.85 334.047 390.579 326.891 390.597 326.819C390.734 326.269 390.549 325.689 390.117 325.322C389.684 324.953 389.083 324.862 388.564 325.086L378.986 329.191L367.761 319.369C367.198 318.877 366.36 318.877 365.798 319.369L354.573 329.191L344.994 325.086C344.475 324.861 343.871 324.955 343.439 325.322C343.008 325.69 342.823 326.272 342.961 326.822C342.981 326.894 344.727 334.026 341.03 338.305C340.389 339.048 339.525 339.549 338.526 340.129L337.917 340.486C334.291 342.641 331.892 344.777 330.135 347.415L329.921 347.734C329.69 348.082 329.614 348.512 329.714 348.919C329.814 349.324 330.081 349.67 330.448 349.87L338.429 354.22C341.337 355.674 343.117 358.657 343.108 361.822C337.438 360.154 331.475 357.923 330.679 356.876C330.19 356.23 329.272 356.093 328.612 356.573C327.957 357.052 327.803 357.968 328.27 358.633L338.711 373.548C339.164 374.192 340.04 374.377 340.711 373.966C340.729 373.954 342.577 372.863 344.812 372.863C350.246 372.863 352.468 379.392 353.4 384.982C353.49 385.358 353.611 386.476 353.098 387.127C352.546 387.825 351.148 388.008 349.157 387.634C348.566 387.52 347.977 387.772 347.646 388.265C347.312 388.757 347.305 389.4 347.622 389.901L358.063 406.307C358.345 406.752 358.804 407.026 359.372 406.996C359.9 406.978 360.379 406.683 360.631 406.219C360.663 406.161 361.408 404.789 362.303 402.529C366.209 392.67 365.419 381.447 360.13 371.734C356.976 365.935 352.462 354.557 357.705 343.46C357.723 343.423 359.478 339.877 366.781 339.877C374.047 339.877 375.795 343.335 375.873 343.497C381.098 354.555 376.586 365.934 373.43 371.733C368.141 381.445 367.35 392.669 371.257 402.528C372.153 404.786 372.897 406.16 372.929 406.218C373.181 406.682 373.659 406.977 374.187 406.995C374.205 406.995 374.222 406.995 374.238 406.995C374.747 406.995 375.223 406.735 375.497 406.304L385.938 389.898C386.257 389.397 386.248 388.752 385.914 388.262C385.581 387.769 384.99 387.519 384.403 387.631C382.418 388.004 381.013 387.822 380.461 387.124C379.949 386.475 380.07 385.356 380.182 384.867C381.09 379.39 383.314 372.862 388.746 372.862C390.985 372.862 392.834 373.957 392.848 373.964C393.522 374.379 394.399 374.191 394.848 373.546L405.288 358.631C405.757 357.965 405.604 357.049 404.948 356.57Z" fill="white"/>
<path d="M375.452 353.926L367.995 343.485C367.435 342.701 366.127 342.701 365.568 343.485L358.111 353.926C357.739 354.445 357.739 355.14 358.111 355.659L365.568 366.099C365.847 366.492 366.299 366.724 366.781 366.724C367.262 366.724 367.714 366.492 367.993 366.099L375.451 355.659C375.824 355.14 375.824 354.445 375.452 353.926Z" fill="white"/>
<path d="M346.571 222.804L366.125 1L385.178 222.804L411 238.124L367.694 252.48C366.675 252.818 365.575 252.819 364.556 252.483L321 238.124L346.571 222.804Z" stroke="white" stroke-width="3"/>
<path d="M222.804 381.429L1 361.875L222.804 342.822L238.124 317L252.48 360.306C252.818 361.325 252.819 362.425 252.483 363.444L238.124 407L222.804 381.429Z" stroke="white" stroke-width="3"/>
<path d="M385.429 502.196L365.875 724L346.822 502.196L321 486.876L364.306 472.52C365.325 472.182 366.425 472.181 367.444 472.517L411 486.876L385.429 502.196Z" stroke="white" stroke-width="3"/>
<path d="M511.196 344.571L733 364.125L511.196 383.178L495.876 409L481.52 365.694C481.182 364.675 481.181 363.575 481.517 362.556L495.876 319L511.196 344.571Z" stroke="white" stroke-width="3"/>
</svg>
