<svg width="68" height="64" viewBox="0 0 68 64" fill="none" xmlns="http://www.w3.org/2000/svg">
<path d="M66.3591 21.7991C64.1749 19.6184 60.621 19.6184 58.437 21.7991L54.3831 25.8464L47.5538 19.028C49.8498 19.0058 52.0974 18.1 53.7825 16.4174C55.4689 14.7338 56.3976 12.4953 56.3976 10.1143C56.3976 7.73322 55.4689 5.49475 53.7825 3.81109C50.3016 0.335512 44.6373 0.335666 41.156 3.81109C39.4709 5.49382 38.5635 7.73787 38.5413 10.0301L30.8848 2.38579C27.6992 -0.794722 22.5158 -0.795341 19.3303 2.3844C17.3111 4.39983 15.0569 6.64992 13.3102 8.39259C12.3246 9.37598 11.7832 10.6834 11.7854 12.074C11.7875 13.4648 12.3339 14.775 13.324 15.7635L13.3983 15.8378C14.3586 16.7966 15.6354 17.3245 16.9933 17.3245C16.9939 17.3245 16.9944 17.3245 16.9949 17.3245C18.3534 17.3242 19.6304 16.7954 20.5907 15.8358L24.0198 12.4084L28.7295 17.1106L22.5829 23.2475H8.0245C3.8302 23.2475 0.417165 26.6537 0.416235 30.8403C0.415459 33.8554 0.414063 37.3371 0.411736 39.9817C0.410495 41.3631 0.949133 42.6608 1.92821 43.6358C2.90759 44.6109 4.21246 45.1479 5.60265 45.1479H5.70752C7.05753 45.1479 8.32656 44.6226 9.2805 43.6688C10.2344 42.715 10.7588 41.4475 10.7571 40.0995L10.7487 33.9566H22.546L1.5596 54.9095C-0.519867 56.9856 -0.519867 60.364 1.5596 62.4403C2.56691 63.446 3.90637 64 5.331 64C6.75579 64 8.09493 63.4461 9.1024 62.4403L28.6223 42.9515C29.4019 43.4675 30.3248 43.7526 31.2725 43.7526C32.3313 43.7526 33.3328 43.4139 34.1598 42.7864C35.1001 43.2175 36.1266 43.4428 37.1678 43.4428C41.1456 43.4428 44.3817 40.2118 44.3817 36.2404C44.3817 33.8372 43.1992 31.6445 41.2755 30.3185L42.4077 29.1881L49.6518 36.4207C50.9854 37.7522 52.7582 38.4854 54.6442 38.4854C56.5302 38.4854 58.303 37.7522 59.6364 36.4207L66.3593 29.7089C67.4171 28.6525 68 27.248 68 25.7541C68 24.26 67.4171 22.8555 66.3591 21.7991ZM42.3649 36.2404C42.3649 39.1016 40.0335 41.4293 37.1678 41.4293C36.2374 41.4293 35.3233 41.1796 34.5245 40.7072C34.1205 40.4682 33.6053 40.5394 33.2812 40.878C32.7502 41.4333 32.0369 41.739 31.2725 41.739C30.8575 41.739 30.4601 41.6475 30.0978 41.4784L39.8157 31.776C41.3841 32.7007 42.3649 34.383 42.3649 36.2404ZM64.9331 28.285L58.2102 34.9968C57.2576 35.9478 55.9912 36.4717 54.6442 36.4717C53.2971 36.4717 52.0304 35.9478 51.0779 34.9968L43.1209 27.0524C42.727 26.6592 42.0884 26.6592 41.6948 27.0524L7.67622 61.0164C7.04993 61.6418 6.21699 61.9863 5.331 61.9863C4.44516 61.9863 3.61223 61.6418 2.98594 61.0164C1.69271 59.7252 1.69271 57.6244 2.98594 56.3333L25.6935 33.6618C25.9819 33.3739 26.0683 32.9408 25.912 32.5647C25.756 32.1885 25.3883 31.9432 24.9804 31.9432H9.73893C9.47116 31.9432 9.21456 32.0494 9.0253 32.2385C8.83618 32.4277 8.73022 32.684 8.73053 32.9513L8.74031 40.1025C8.74139 40.9121 8.42662 41.6734 7.85354 42.2461C7.28046 42.8189 6.51842 43.1344 5.70752 43.1344H5.60265C4.75016 43.1344 3.95105 42.8062 3.35237 42.2104C2.75587 41.6164 2.42775 40.8256 2.42853 39.9837C2.43101 37.3388 2.43225 33.8565 2.43303 30.841C2.43365 27.7644 4.94207 25.2614 8.0245 25.2614H23.001C23.2685 25.2614 23.5249 25.1553 23.7142 24.9664L30.8692 17.8228C31.2629 17.4295 31.2629 16.7921 30.8692 16.399L24.733 10.2726C24.5437 10.0838 24.2871 9.97773 24.0195 9.97773C23.7519 9.97773 23.4955 10.084 23.3064 10.273L19.164 14.413C18.5847 14.992 17.8143 15.3109 16.9946 15.3112C16.9946 15.3112 16.9941 15.3112 16.9938 15.3112C16.1745 15.3112 15.4043 14.9928 14.8247 14.4141L14.7503 14.3397C14.1403 13.7309 13.8039 12.9251 13.8026 12.0711C13.8012 11.2198 14.1329 10.4192 14.7364 9.81711C16.4831 8.07444 18.7375 5.8242 20.7568 3.80861C23.156 1.41386 27.0598 1.41417 29.4593 3.80985L39.3859 13.7208C39.7238 14.058 40.2522 14.1122 40.6515 13.8512C41.051 13.5899 41.2122 13.0848 41.0375 12.6409C40.0318 10.0835 40.638 7.17654 42.5824 5.23515C45.2771 2.54486 49.6618 2.54455 52.3568 5.23515C55.0516 7.92559 55.0516 12.3034 52.3567 14.9938C50.4125 16.9352 47.5007 17.5407 44.9391 16.5362C44.4949 16.3621 43.9884 16.5229 43.727 16.9218C43.4653 17.3206 43.5197 17.848 43.8576 18.1852L53.6701 27.9822C54.0638 28.3754 54.7024 28.3754 55.0961 27.9822L59.8632 23.223C61.2611 21.8271 63.5356 21.8274 64.9332 23.223H64.9334C65.6104 23.8991 65.9835 24.7979 65.9835 25.7541C65.9832 26.7101 65.6103 27.609 64.9331 28.285Z" fill="white"/>
</svg>
