<svg width="546" height="546" viewBox="0 0 546 546" fill="none" xmlns="http://www.w3.org/2000/svg">
<g clip-path="url(#clip0_52_20)">
<path d="M510.842 196.553L516.74 184.555H416.015C415.864 183.688 415.648 182.556 415.381 181.107C413.432 170.692 408.799 145.948 403.867 119.688V119.671C400.618 102.408 397.235 84.4967 394.403 69.55C392.987 62.0851 391.704 55.3529 390.637 49.8214C389.571 44.29 388.721 39.9572 388.171 37.2581C387.57 34.3916 386.687 31.6595 385.555 29.0596C384.405 26.4597 383.005 23.9941 381.372 21.728C376.506 14.8294 369.742 9.44729 362.011 5.73193C354.263 2.03257 345.533 0 336.484 0C330.952 0 325.32 0.766746 319.754 2.39941C314.206 4.01609 308.741 6.53174 303.575 9.9645C297.026 14.3464 290.977 16.5965 285.779 17.8292C283.163 18.4296 280.763 18.7794 278.631 18.9628C276.498 19.1633 274.632 19.1964 272.999 19.1964C271.432 19.1964 270.099 19.2636 268.816 19.2636C267.433 19.2636 266.133 19.1964 264.667 19.014C262.467 18.7304 259.801 18.1641 256.169 16.765C252.503 15.3989 247.904 13.1989 242.072 9.73309C231.524 3.46795 220.077 0.635578 209.147 0.635578C203.148 0.635578 197.3 1.50257 191.785 3.13523C183.52 5.56771 175.988 9.73416 169.989 15.5151C166.99 18.3976 164.391 21.664 162.324 25.3293C160.257 28.9785 158.708 32.9775 157.842 37.2602H157.859C157.293 39.9593 156.459 44.2921 155.392 49.8236C152.193 66.42 147.012 93.7798 142.128 119.69C137.196 145.95 132.581 170.694 130.632 181.109C130.365 182.558 130.131 183.692 129.982 184.558H29.26L35.1583 196.555C35.458 197.155 38.3575 202.903 45.656 211.185C56.5536 223.615 77.3155 241.711 113.373 256.59C123.687 260.823 135.234 264.805 148.131 268.338V272.77L187.687 318.489C187.687 318.489 233.443 327.153 237.159 325.92C240.858 324.688 273 292.528 273 292.528C273 292.528 305.159 324.687 308.858 325.92C312.557 327.154 358.312 318.489 358.312 318.489L397.87 272.766V268.334C440.943 256.571 468.769 239.675 485.982 225.178C504.077 209.949 510.426 197.418 510.842 196.553ZM158.528 122.77C161.76 105.507 165.16 87.5786 167.975 72.666C169.391 65.2011 170.691 58.486 171.74 52.9876C172.807 47.4721 173.657 43.1564 174.19 40.5576C174.856 37.225 176.207 34.2092 178.156 31.4259C181.089 27.2936 185.454 23.7275 190.819 21.2279C196.185 18.7282 202.517 17.295 209.149 17.312C217.214 17.312 225.678 19.3947 233.576 24.0603C242.207 29.1929 249.006 32.1916 254.771 33.8915C257.637 34.7243 260.253 35.2575 262.602 35.5583C264.969 35.8579 267.034 35.9251 268.818 35.9251C270.484 35.9251 271.866 35.8579 273 35.8579C274.899 35.8579 277.333 35.8078 280.132 35.5583C284.332 35.1914 289.397 34.3585 294.962 32.5584C300.526 30.7584 306.592 27.9932 312.824 23.8267C316.573 21.3271 320.489 19.528 324.454 18.3614C328.419 17.1947 332.485 16.6615 336.484 16.6615C340.817 16.6615 345.116 17.328 349.082 18.5448C355.063 20.3609 360.362 23.4599 364.311 27.2925C366.26 29.1918 367.91 31.2916 369.177 33.5246C370.444 35.7406 371.343 38.0899 371.843 40.5565C372.376 43.1564 373.209 47.4711 374.275 52.9865C377.442 69.4988 382.64 96.8595 387.489 122.753C388.139 126.186 388.772 129.568 389.406 132.934H156.611C157.245 129.568 157.878 126.186 158.528 122.77ZM421.63 243.04C388.072 256.104 340.25 266.468 273 266.468C226.061 266.468 188.587 261.403 158.827 253.905C114.189 242.675 86.8779 225.978 70.7656 212.431C65.8996 208.349 62.068 204.516 59.0853 201.217H486.931C486.347 201.85 485.748 202.517 485.115 203.183C474.584 214.247 455.189 229.977 421.63 243.04Z" fill="white"/>
<path d="M100.509 368.044C106.724 361.495 112.206 356.497 116.105 353.147C118.038 351.497 119.588 350.248 120.62 349.415C121.136 349.015 121.536 348.715 121.803 348.515C121.919 348.432 122.019 348.364 122.069 348.314L122.12 348.281H122.137L122.036 348.165L122.003 348.115L112.305 334.802C112.006 335.035 101.758 342.516 88.4115 356.58C75.0814 370.66 58.6182 391.338 46.0549 418.032L42.6893 425.164L94.9432 453.357C87.0113 459.24 75.6807 468.071 63.6837 478.702C52.6197 488.516 41.0396 499.879 31.058 512.01C26.0928 518.058 21.5265 524.306 17.6277 530.705C14.5948 535.72 11.9619 540.819 9.92932 546.001H28.1915C29.2579 543.801 30.5078 541.585 31.8738 539.369C37.7721 529.638 45.9536 519.624 54.9178 510.21C68.3812 496.063 83.5444 483.25 95.2909 474.035C101.173 469.42 106.204 465.703 109.755 463.154C111.538 461.887 112.937 460.905 113.887 460.222C114.37 459.888 114.72 459.656 114.953 459.488C115.07 459.405 115.17 459.355 115.22 459.305L115.287 459.255H115.304L126.702 451.556L64.6338 418.065C75.6818 396.804 89.2785 379.89 100.509 368.044Z" fill="white"/>
<path d="M528.371 530.704C521.573 519.507 512.675 508.742 503.144 498.712C488.864 483.715 473.169 470.485 460.988 460.92C457.322 458.038 453.956 455.488 451.057 453.355L503.311 425.162L499.961 418.032C487.381 391.338 470.935 370.66 457.588 356.58C444.258 342.516 433.994 335.035 433.678 334.802L424.047 348.049L423.88 348.282C424.164 348.499 433.762 355.564 446.092 368.677C457.189 380.475 470.519 397.171 481.383 418.066L419.298 451.557L430.712 459.256C430.762 459.289 435.677 462.621 443.225 468.287C450.757 473.953 460.921 481.967 471.485 491.381C482.083 500.779 493.047 511.577 502.177 522.707C506.726 528.272 510.809 533.904 514.174 539.437C515.507 541.637 516.74 543.835 517.84 546.001H536.07C534.036 540.819 531.42 535.719 528.371 530.704Z" fill="white"/>
<path d="M294.428 445.725H251.572V476.017H294.428V445.725Z" fill="white"/>
<path d="M256.438 491.947L249.789 546H296.227L289.579 491.947H256.438Z" fill="white"/>
</g>
<defs>
<clipPath id="clip0_52_20">
<rect width="546" height="546" fill="white"/>
</clipPath>
</defs>
</svg>
