<svg width="208" height="208" viewBox="0 0 208 208" fill="none" xmlns="http://www.w3.org/2000/svg">
<g filter="url(#filter0_d_40_22)">
<rect x="4" width="200" height="200" rx="30" fill="#0E3611"/>
</g>
<path d="M104 174C101.981 174 100.097 173.46 98.3478 172.514L80.4493 161.846C77.7578 160.36 79.1035 159.82 79.911 159.55C83.5445 158.334 84.2174 158.064 87.9855 155.904C88.3892 155.633 88.9275 155.768 89.3313 156.039L103.058 164.277C103.596 164.547 104.269 164.547 104.673 164.277L158.369 133.08C158.907 132.81 159.176 132.27 159.176 131.595V69.3376C159.176 68.6624 158.907 68.1222 158.369 67.8521L104.673 36.791C104.135 36.5209 103.462 36.5209 103.058 36.791L49.3623 67.8521C48.824 68.1222 48.5549 68.7974 48.5549 69.3376V131.595C48.5549 132.135 48.824 132.81 49.3623 133.08L64.0311 141.588C71.971 145.64 76.9503 140.913 76.9503 136.186V74.7395C76.9503 73.9293 77.6232 73.119 78.5652 73.119H85.4286C86.236 73.119 87.0435 73.7942 87.0435 74.7395V136.186C87.0435 146.855 81.2567 153.068 71.1636 153.068C68.0683 153.068 65.646 153.068 58.7826 149.691L44.6522 141.588C41.1532 139.563 39 135.781 39 131.73V69.4727C39 65.4212 41.1532 61.6399 44.6522 59.6141L98.3478 28.418C101.712 26.5273 106.288 26.5273 109.652 28.418L163.348 59.6141C166.847 61.6399 169 65.4212 169 69.4727V131.73C169 135.781 166.847 139.563 163.348 141.588L109.652 172.785C107.903 173.595 105.884 174 104 174ZM120.553 131.19C97.0021 131.19 92.1574 120.386 92.1574 111.203C92.1574 110.392 92.8302 109.582 93.7723 109.582H100.77C101.578 109.582 102.251 110.122 102.251 110.932C103.327 118.09 106.422 121.601 120.687 121.601C131.992 121.601 136.836 119.035 136.836 112.958C136.836 109.447 135.491 106.881 117.861 105.125C103.193 103.64 94.0414 100.399 94.0414 88.6495C94.0414 77.7106 103.193 71.2283 118.534 71.2283C135.76 71.2283 144.238 77.1704 145.315 90.135C145.315 90.5402 145.18 90.9453 144.911 91.3505C144.642 91.6206 144.238 91.8907 143.834 91.8907H136.836C136.164 91.8907 135.491 91.3505 135.356 90.6752C133.741 83.2476 129.569 80.8167 118.534 80.8167C106.153 80.8167 104.673 85.1383 104.673 88.3794C104.673 92.2958 106.422 93.5113 123.11 95.672C139.663 97.8328 147.468 100.939 147.468 112.553C147.333 124.437 137.644 131.19 120.553 131.19Z" fill="#539E43"/>
<defs>
<filter id="filter0_d_40_22" x="0" y="0" width="208" height="208" filterUnits="userSpaceOnUse" color-interpolation-filters="sRGB">
<feFlood flood-opacity="0" result="BackgroundImageFix"/>
<feColorMatrix in="SourceAlpha" type="matrix" values="0 0 0 0 0 0 0 0 0 0 0 0 0 0 0 0 0 0 127 0" result="hardAlpha"/>
<feOffset dy="4"/>
<feGaussianBlur stdDeviation="2"/>
<feComposite in2="hardAlpha" operator="out"/>
<feColorMatrix type="matrix" values="0 0 0 0 0 0 0 0 0 0 0 0 0 0 0 0 0 0 0.25 0"/>
<feBlend mode="normal" in2="BackgroundImageFix" result="effect1_dropShadow_40_22"/>
<feBlend mode="normal" in="SourceGraphic" in2="effect1_dropShadow_40_22" result="shape"/>
</filter>
</defs>
</svg>
