<svg width="208" height="208" viewBox="0 0 208 208" fill="none" xmlns="http://www.w3.org/2000/svg">
<g filter="url(#filter0_d_40_16)">
<rect x="4" width="200" height="200" rx="30" fill="#0D1A5B"/>
</g>
<path d="M103.913 112.836C111.202 112.836 117.111 106.927 117.111 99.6383C117.111 92.3493 111.202 86.4404 103.913 86.4404C96.6239 86.4404 90.715 92.3493 90.715 99.6383C90.715 106.927 96.6239 112.836 103.913 112.836Z" fill="#00D8FF"/>
<path d="M103.911 75.9543C120.966 75.9543 137.168 78.3588 149.485 82.599C163.164 87.3082 171.508 94.2707 171.508 99.6353C171.508 105.35 162.497 112.768 147.865 117.616C136.216 121.476 120.63 123.579 103.911 123.579C86.3478 123.579 70.5866 121.517 59.073 117.581C51.865 115.118 45.9124 111.916 41.8323 108.422C38.166 105.282 36.3149 102.165 36.3149 99.6353C36.3149 94.2526 44.3398 87.3869 57.7241 82.7205C70.0461 78.4247 86.6439 75.9543 103.911 75.9543ZM103.911 69.6393C85.973 69.6393 68.6801 72.2133 55.6452 76.7575C39.9948 82.214 30 90.7652 30 99.6353C30 108.797 40.7296 117.985 57.0306 123.557C69.2835 127.745 85.7073 129.894 103.911 129.894C121.261 129.894 137.502 127.702 149.851 123.611C166.797 117.996 177.823 108.919 177.823 99.6353C177.823 90.7331 167.506 82.1243 151.54 76.628C138.521 72.146 121.632 69.6393 103.911 69.6393ZM83.2832 87.8708C91.8033 73.0968 101.98 60.2633 111.806 51.7117C122.72 42.2144 132.92 38.4643 137.567 41.1442C142.517 43.9989 144.442 55.5116 141.332 70.6086C138.856 82.6277 132.892 97.1798 124.54 111.663C115.765 126.878 106.105 139.501 96.9436 147.509C91.2084 152.522 85.461 156.079 80.3959 157.868C75.8444 159.475 72.2192 159.522 70.028 158.258C65.3652 155.569 63.4267 145.187 66.0708 131.262C68.505 118.442 74.6565 102.83 83.2832 87.8708ZM77.8128 84.716C68.8509 100.256 62.4417 116.522 59.8667 130.084C56.7749 146.367 59.1893 159.297 66.8732 163.728C74.8097 168.305 88.1296 163.601 101.1 152.263C110.849 143.741 120.916 130.588 130.01 114.818C138.677 99.7885 144.892 84.6243 147.517 71.8828C151.119 54.3978 148.764 40.3115 140.721 35.6737C133.01 31.2266 120.398 35.8634 107.661 46.9481C97.2741 55.9873 86.6651 69.3659 77.8128 84.716ZM83.303 111.697C74.7583 96.9375 68.7222 81.7115 66.2209 68.9275C63.4429 54.7296 65.288 44.0198 69.9307 41.3321C74.8762 38.469 85.8118 42.5511 97.3377 52.7853C106.514 60.9329 116.143 73.3669 124.52 87.8364C133.319 103.037 139.431 117.71 141.794 129.647C143.273 137.119 143.484 143.875 142.504 149.156C141.624 153.902 139.853 157.066 137.664 158.333C133.006 161.03 123.043 157.525 112.299 148.28C102.408 139.768 91.9548 126.642 83.303 111.697ZM77.8378 114.861C86.8257 130.386 97.7172 144.063 108.18 153.066C120.743 163.877 133.152 168.243 140.828 163.799C148.757 159.209 151.334 145.319 147.988 128.42C145.474 115.718 139.106 100.427 129.985 84.6725C121.292 69.6575 111.258 56.7004 101.531 48.0631C88.1815 36.2101 74.8013 31.2155 66.7669 35.8669C59.0625 40.3269 56.7811 53.5692 60.0235 70.1401C62.6674 83.653 68.9599 99.5258 77.8378 114.861Z" fill="#00D8FF"/>
<defs>
<filter id="filter0_d_40_16" x="0" y="0" width="208" height="208" filterUnits="userSpaceOnUse" color-interpolation-filters="sRGB">
<feFlood flood-opacity="0" result="BackgroundImageFix"/>
<feColorMatrix in="SourceAlpha" type="matrix" values="0 0 0 0 0 0 0 0 0 0 0 0 0 0 0 0 0 0 127 0" result="hardAlpha"/>
<feOffset dy="4"/>
<feGaussianBlur stdDeviation="2"/>
<feComposite in2="hardAlpha" operator="out"/>
<feColorMatrix type="matrix" values="0 0 0 0 0 0 0 0 0 0 0 0 0 0 0 0 0 0 0.25 0"/>
<feBlend mode="normal" in2="BackgroundImageFix" result="effect1_dropShadow_40_16"/>
<feBlend mode="normal" in="SourceGraphic" in2="effect1_dropShadow_40_16" result="shape"/>
</filter>
</defs>
</svg>
